<svg width="96" height="97" viewBox="0 0 96 97" fill="none" xmlns="http://www.w3.org/2000/svg">
<g clip-path="url(#clip0_1_6)">
<path fill-rule="evenodd" clip-rule="evenodd" d="M25.5 7.18132C39.8344 4.70535 51.5011 8.9778 60.5 19.9987C87.6093 23.8155 98.1093 38.9334 92 65.3523C89.9039 69.8155 87.0706 73.7593 83.5 77.1837C87.0014 80.7386 88.3348 85.011 87.5 90.0011C80.7832 90.4774 74.7832 88.6698 69.5 84.5783C55.1836 86.5682 43.517 82.1314 34.5 71.268C31.5541 70.1294 28.5541 69.9652 25.5 70.775C20.2168 74.8665 14.2168 76.6741 7.49999 76.1978C6.66524 71.2077 7.99857 66.9353 11.5 63.3804C1.90058 53.7512 -1.26608 42.2485 1.99999 28.8722C6.18625 17.6752 14.0196 10.4448 25.5 7.18132ZM26.5 11.1251C41.9107 8.7866 53.0773 14.3736 60 27.8863C64.0204 45.1012 57.5204 56.4396 40.5 61.9015C35.4456 62.6715 30.4456 62.5072 25.5 61.4085C22.2748 64.3132 18.6082 66.1209 14.5 66.8312C16.0492 64.7624 17.0492 62.4619 17.5 59.9296C13.2706 55.7483 9.77056 50.9829 6.99999 45.6333C3.10513 28.3305 9.60513 16.8277 26.5 11.1251ZM62.5 25.9144C75.8556 25.3928 84.689 31.6371 89 44.6474C89.8257 49.6652 89.4924 54.5949 88 59.4366C85.2294 64.7862 81.7294 69.5516 77.5 73.7329C77.9508 76.2652 78.9508 78.5657 80.5 80.6345C76.3918 79.9242 72.7252 78.1165 69.5 75.2118C57.5967 78.1991 47.5967 75.2413 39.5 66.3383C60.5849 59.9043 68.2516 46.4296 62.5 25.9144Z" fill="white"/>
</g>
<defs>
<clipPath id="clip0_1_6">
<rect width="96" height="96" fill="white" transform="translate(0 0.5)"/>
</clipPath>
</defs>
</svg>
